<svg xmlns="http://www.w3.org/2000/svg" xmlns:xlink="http://www.w3.org/1999/xlink" contentStyleType="text/css" data-diagram-type="DESCRIPTION" height="1419px" preserveAspectRatio="none" style="width:1057px;height:1419px;background:#FFFFFF;" version="1.1" viewBox="0 0 1057 1419" width="1057px" zoomAndPan="magnify"><defs/><g><!--cluster Plataforma Inteligente para Monitoramento e Otimiza??o de Infraestruturas Sustent?veis--><g class="cluster" data-entity="Plataforma Inteligente para Monitoramento e Otimiza..o de Infraestruturas Sustent.veis" data-source-line="12" data-uid="ent0007" id="cluster_Plataforma Inteligente para Monitoramento e Otimiza..o de Infraestruturas Sustent.veis"><rect fill="none" height="1397" rx="2.5" ry="2.5" style="stroke:#181818;stroke-width:1;" width="725" x="326" y="7"/><text fill="#000000" font-family="sans-serif" font-size="14" font-weight="bold" lengthAdjust="spacing" textLength="709.6113" x="333.6943" y="21.9951">Plataforma Inteligente para Monitoramento e Otimização de Infraestruturas Sustentáveis</text></g><!--entity UC01--><g class="entity" data-entity="UC01" data-source-line="14" data-uid="ent0008" id="entity_UC01"><ellipse cx="688.0888" cy="680.9178" fill="#F1F1F1" rx="85.0888" ry="19.4178" style="stroke:#181818;stroke-width:0.5;"/><text fill="#000000" font-family="sans-serif" font-size="14" lengthAdjust="spacing" textLength="142.5293" x="616.8242" y="685.5662">Cadastro de Usuário</text></g><!--entity UC02--><g class="entity" data-entity="UC02" data-source-line="15" data-uid="ent0009" id="entity_UC02"><ellipse cx="687.9491" cy="418.9898" fill="#F1F1F1" rx="97.9491" ry="21.9898" style="stroke:#181818;stroke-width:0.5;"/><text fill="#000000" font-family="sans-serif" font-size="14" lengthAdjust="spacing" textLength="171.5273" x="602.1854" y="423.6383">Autenticação de Usuário</text></g><!--entity UC03--><g class="entity" data-entity="UC03" data-source-line="16" data-uid="ent0010" id="entity_UC03"><ellipse cx="688.1641" cy="66.9108" fill="#F1F1F1" rx="89.1641" ry="24.4108" style="stroke:#181818;stroke-width:0.5;"/><text fill="#000000" font-family="sans-serif" font-size="14" lengthAdjust="spacing" textLength="131.168" x="622.5801" y="65.8212">Gerenciar Portfólio</text><text fill="#000000" font-family="sans-serif" font-size="14" lengthAdjust="spacing" textLength="83.8223" x="646.253" y="82.1181">de Produtos</text></g><!--entity UC04--><g class="entity" data-entity="UC04" data-source-line="17" data-uid="ent0011" id="entity_UC04"><ellipse cx="687.9789" cy="761.1374" fill="#F1F1F1" rx="56.4789" ry="25.6374" style="stroke:#181818;stroke-width:0.5;"/><text fill="#000000" font-family="sans-serif" font-size="14" lengthAdjust="spacing" textLength="71.2578" x="652.35" y="757.0524">Criar Lista</text><text fill="#000000" font-family="sans-serif" font-size="14" lengthAdjust="spacing" textLength="77" x="649.4789" y="773.3493">de Desejos</text></g><!--entity UC05--><g class="entity" data-entity="UC05" data-source-line="18" data-uid="ent0012" id="entity_UC05"><ellipse cx="688.0796" cy="916.9702" fill="#F1F1F1" rx="76.5796" ry="25.4702" style="stroke:#181818;stroke-width:0.5;"/><text fill="#000000" font-family="sans-serif" font-size="14" lengthAdjust="spacing" textLength="106.7295" x="634.7148" y="914.297">Buscar e Filtrar</text><text fill="#000000" font-family="sans-serif" font-size="14" lengthAdjust="spacing" textLength="95.2861" x="640.4365" y="930.5939">Fornecedores</text></g><!--entity UC06--><g class="entity" data-entity="UC06" data-source-line="19" data-uid="ent0013" id="entity_UC06"><ellipse cx="688.044" cy="254.0665" fill="#F1F1F1" rx="90.044" ry="24.5665" style="stroke:#181818;stroke-width:0.5;"/><text fill="#000000" font-family="sans-serif" font-size="14" lengthAdjust="spacing" textLength="131.5508" x="622.2686" y="252.738">Visualizar Previsão</text><text fill="#000000" font-family="sans-serif" font-size="14" lengthAdjust="spacing" textLength="89.8994" x="643.0943" y="269.0349">de Demanda</text></g><!--entity UC07--><g class="entity" data-entity="UC07" data-source-line="20" data-uid="ent0014" id="entity_UC07"><ellipse cx="688.2232" cy="338.0095" fill="#F1F1F1" rx="87.2232" ry="24.0095" style="stroke:#181818;stroke-width:0.5;"/><text fill="#000000" font-family="sans-serif" font-size="14" lengthAdjust="spacing" textLength="130.6621" x="622.8921" y="337.547">Sugestão de Preço</text><text fill="#000000" font-family="sans-serif" font-size="14" lengthAdjust="spacing" textLength="65.9121" x="655.2671" y="353.8439">Dinâmico</text></g><!--entity UC08--><g class="entity" data-entity="UC08" data-source-line="21" data-uid="ent0015" id="entity_UC08"><ellipse cx="687.8932" cy="839.1786" fill="#F1F1F1" rx="73.8932" ry="17.1786" style="stroke:#181818;stroke-width:0.5;"/><text fill="#000000" font-family="sans-serif" font-size="14" lengthAdjust="spacing" textLength="116.0332" x="629.8766" y="843.8271">Realizar Compra</text></g><!--entity UC09--><g class="entity" data-entity="UC09" data-source-line="22" data-uid="ent0016" id="entity_UC09"><ellipse cx="687.7817" cy="1097.7563" fill="#F1F1F1" rx="89.2817" ry="20.2563" style="stroke:#181818;stroke-width:0.5;"/><text fill="#000000" font-family="sans-serif" font-size="14" lengthAdjust="spacing" textLength="152.1133" x="611.7251" y="1102.4048">Processar Pagamento</text></g><!--entity UC11--><g class="entity" data-entity="UC11" data-source-line="23" data-uid="ent0017" id="entity_UC11"><ellipse cx="687.7615" cy="1195.2468" fill="#F1F1F1" rx="95.7615" ry="24.7468" style="stroke:#181818;stroke-width:0.5;"/><text fill="#000000" font-family="sans-serif" font-size="14" lengthAdjust="spacing" textLength="139.0293" x="618.2468" y="1193.6445">Gerar Comprovante</text><text fill="#000000" font-family="sans-serif" font-size="14" lengthAdjust="spacing" textLength="101.6162" x="636.9533" y="1209.9414">de Pagamento</text></g><!--entity UC10--><g class="entity" data-entity="UC10" data-source-line="24" data-uid="ent0018" id="entity_UC10"><ellipse cx="687.7627" cy="500.8663" fill="#F1F1F1" rx="92.7627" ry="24.8663" style="stroke:#181818;stroke-width:0.5;"/><text fill="#000000" font-family="sans-serif" font-size="14" lengthAdjust="spacing" textLength="133.7998" x="620.8628" y="499.0842">Visualizar Histórico</text><text fill="#000000" font-family="sans-serif" font-size="14" lengthAdjust="spacing" textLength="101.7529" x="636.8862" y="515.3811">de Transações</text></g><!--entity UC12--><g class="entity" data-entity="UC12" data-source-line="25" data-uid="ent0019" id="entity_UC12"><ellipse cx="688.1058" cy="1279.2241" fill="#F1F1F1" rx="91.1058" ry="24.2241" style="stroke:#181818;stroke-width:0.5;"/><text fill="#000000" font-family="sans-serif" font-size="14" lengthAdjust="spacing" textLength="135.3037" x="620.4539" y="1278.4241">Auditar Transações</text><text fill="#000000" font-family="sans-serif" font-size="14" lengthAdjust="spacing" textLength="78.5791" x="648.8162" y="1294.721">e Registros</text></g><!--entity UCA2--><g class="entity" data-entity="UCA2" data-source-line="27" data-uid="ent0020" id="entity_UCA2"><ellipse cx="687.9564" cy="1363.1586" fill="#F1F1F1" rx="70.4564" ry="25.1586" style="stroke:#181818;stroke-width:0.5;"/><text fill="#000000" font-family="sans-serif" font-size="14" lengthAdjust="spacing" textLength="99.2236" x="638.3445" y="1360.9416">Coletar Dados</text><text fill="#000000" font-family="sans-serif" font-size="14" lengthAdjust="spacing" textLength="82.127" x="646.8929" y="1377.2385">de Mercado</text></g><!--entity UCA3--><g class="entity" data-entity="UCA3" data-source-line="28" data-uid="ent0021" id="entity_UCA3"><ellipse cx="687.8276" cy="152.0449" fill="#F1F1F1" rx="95.8276" ry="25.5449" style="stroke:#181818;stroke-width:0.5;"/><text fill="#000000" font-family="sans-serif" font-size="14" lengthAdjust="spacing" textLength="134.2031" x="620.726" y="149.2634">Analisar Dados das</text><text fill="#000000" font-family="sans-serif" font-size="14" lengthAdjust="spacing" textLength="121.7959" x="626.9296" y="165.5603">Listas de Desejos</text></g><!--entity UCA4--><g class="entity" data-entity="UCA4" data-source-line="29" data-uid="ent0022" id="entity_UCA4"><ellipse cx="688.1356" cy="602.1394" fill="#F1F1F1" rx="92.1356" ry="24.6394" style="stroke:#181818;stroke-width:0.5;"/><text fill="#000000" font-family="sans-serif" font-size="14" lengthAdjust="spacing" textLength="134.2578" x="621.0067" y="600.6998">Visualizar Detalhes</text><text fill="#000000" font-family="sans-serif" font-size="14" lengthAdjust="spacing" textLength="94.3906" x="640.9403" y="616.9967">da Transação</text></g><!--entity UC05A--><g class="entity" data-entity="UC05A" data-source-line="30" data-uid="ent0023" id="entity_UC05A"><ellipse cx="688.2074" cy="1018.1646" fill="#F1F1F1" rx="75.2074" ry="24.1646" style="stroke:#181818;stroke-width:0.5;"/><text fill="#000000" font-family="sans-serif" font-size="14" lengthAdjust="spacing" textLength="111.2002" x="632.6073" y="1017.4577">Visualizar Preço</text><text fill="#000000" font-family="sans-serif" font-size="14" lengthAdjust="spacing" textLength="62.3574" x="657.0287" y="1033.7545">Sugerido</text></g><!--entity Produtor--><g class="entity" data-entity="Produtor" data-source-line="6" data-uid="ent0002" id="entity_Produtor"><ellipse cx="110.3257" cy="349.5" fill="#F1F1F1" rx="8" ry="8" style="stroke:#181818;stroke-width:0.5;"/><path d="M110.3257,357.5 L110.3257,384.5 M97.3257,365.5 L123.3257,365.5 M110.3257,384.5 L97.3257,399.5 M110.3257,384.5 L123.3257,399.5" fill="none" style="stroke:#181818;stroke-width:0.5;"/><text fill="#000000" font-family="sans-serif" font-size="14" lengthAdjust="spacing" textLength="125.6514" x="47.5" y="413.9951">Pequeno Produtor</text></g><!--entity Varejista--><g class="entity" data-entity="Varejista" data-source-line="7" data-uid="ent0003" id="entity_Varejista"><ellipse cx="110.3335" cy="731.5" fill="#F1F1F1" rx="8" ry="8" style="stroke:#181818;stroke-width:0.5;"/><path d="M110.3335,739.5 L110.3335,766.5 M97.3335,747.5 L123.3335,747.5 M110.3335,766.5 L97.3335,781.5 M110.3335,766.5 L123.3335,781.5" fill="none" style="stroke:#181818;stroke-width:0.5;"/><text fill="#000000" font-family="sans-serif" font-size="14" lengthAdjust="spacing" textLength="61.667" x="79.5" y="795.9951">Varejista</text></g><!--entity Admin--><g class="entity" data-entity="Admin" data-source-line="8" data-uid="ent0004" id="entity_Admin"><ellipse cx="110.54" cy="1235.5" fill="#F1F1F1" rx="8" ry="8" style="stroke:#181818;stroke-width:0.5;"/><path d="M110.54,1243.5 L110.54,1270.5 M97.54,1251.5 L123.54,1251.5 M110.54,1270.5 L97.54,1285.5 M110.54,1270.5 L123.54,1285.5" fill="none" style="stroke:#181818;stroke-width:0.5;"/><text fill="#000000" font-family="sans-serif" font-size="14" lengthAdjust="spacing" textLength="99.0801" x="61" y="1299.9951">Administrador</text></g><!--entity Gateway--><g class="entity" data-entity="Gateway" data-source-line="9" data-uid="ent0005" id="entity_Gateway"><ellipse cx="110.4556" cy="1068.5" fill="#F1F1F1" rx="8" ry="8" style="stroke:#181818;stroke-width:0.5;"/><path d="M110.4556,1076.5 L110.4556,1103.5 M97.4556,1084.5 L123.4556,1084.5 M110.4556,1103.5 L97.4556,1118.5 M110.4556,1103.5 L123.4556,1118.5" fill="none" style="stroke:#181818;stroke-width:0.5;"/><text fill="#000000" font-family="sans-serif" font-size="14" lengthAdjust="spacing" textLength="167.9111" x="26.5" y="1132.9951">Gateway de Pagamento</text></g><!--entity Mercado--><g class="entity" data-entity="Mercado" data-source-line="10" data-uid="ent0006" id="entity_Mercado"><ellipse cx="110.3882" cy="1346.5" fill="#F1F1F1" rx="8" ry="8" style="stroke:#181818;stroke-width:0.5;"/><path d="M110.3882,1354.5 L110.3882,1381.5 M97.3882,1362.5 L123.3882,1362.5 M110.3882,1381.5 L97.3882,1396.5 M110.3882,1381.5 L123.3882,1396.5" fill="none" style="stroke:#181818;stroke-width:0.5;"/><text fill="#000000" font-family="sans-serif" font-size="14" lengthAdjust="spacing" textLength="208.7764" x="6" y="1410.9951">Serviço de Dados de Mercado</text></g><!--link Produtor to UC01--><g class="link" data-entity-1="Produtor" data-entity-2="UC01" data-source-line="33" data-uid="lnk24" id="link_Produtor_UC01"><path d="M128.78,417.3 C158.12,477.31 223.79,591.99 318,644 C409.74,694.64 527.9866,696.2961 606.3166,690.4561" fill="none" id="Produtor-to-UC01" style="stroke:#181818;stroke-width:1;"/><polygon fill="#181818" points="612.3,690.01,603.0275,686.6902,607.3138,690.3818,603.6223,694.6681,612.3,690.01" style="stroke:#181818;stroke-width:1;"/></g><!--link Produtor to UC02--><g class="link" data-entity-1="Produtor" data-entity-2="UC02" data-source-line="34" data-uid="lnk25" id="link_Produtor_UC02"><path d="M173.64,383.32 C274.85,390.35 469.8944,403.9144 588.1344,412.1244" fill="none" id="Produtor-to-UC02" style="stroke:#181818;stroke-width:1;"/><polygon fill="#181818" points="594.12,412.54,585.4187,407.9262,589.132,412.1937,584.8645,415.907,594.12,412.54" style="stroke:#181818;stroke-width:1;"/></g><!--link Produtor to UC03--><g class="link" data-entity-1="Produtor" data-entity-2="UC03" data-source-line="35" data-uid="lnk26" id="link_Produtor_UC03"><path d="M128.42,340.64 C157.47,279.86 223.02,162.83 318,109 C406.21,59.01 519.2878,54.2841 598.0278,58.3041" fill="none" id="Produtor-to-UC03" style="stroke:#181818;stroke-width:1;"/><polygon fill="#181818" points="604.02,58.61,595.2357,54.1563,599.0265,58.3551,594.8278,62.1459,604.02,58.61" style="stroke:#181818;stroke-width:1;"/></g><!--link Produtor to UC06--><g class="link" data-entity-1="Produtor" data-entity-2="UC06" data-source-line="36" data-uid="lnk27" id="link_Produtor_UC06"><path d="M173.75,348.86 C213.98,330.68 267.99,308.65 318,296 C412.07,272.2 517.0805,262.2246 592.5905,257.7546" fill="none" id="Produtor-to-UC06" style="stroke:#181818;stroke-width:1;"/><polygon fill="#181818" points="598.58,257.4,589.3594,253.9388,593.5887,257.6955,589.8321,261.9249,598.58,257.4" style="stroke:#181818;stroke-width:1;"/></g><!--link Produtor to UC07--><g class="link" data-entity-1="Produtor" data-entity-2="UC07" data-source-line="37" data-uid="lnk28" id="link_Produtor_UC07"><path d="M173.64,374.57 C277.54,367.17 480.6451,352.6961 597.3751,344.3861" fill="none" id="Produtor-to-UC07" style="stroke:#181818;stroke-width:1;"/><polygon fill="#181818" points="603.36,343.96,594.0987,340.6092,598.3726,344.3151,594.6668,348.589,603.36,343.96" style="stroke:#181818;stroke-width:1;"/></g><!--link Produtor to UC10--><g class="link" data-entity-1="Produtor" data-entity-2="UC10" data-source-line="38" data-uid="lnk29" id="link_Produtor_UC10"><path d="M173.91,407.56 C214.22,424.83 268.23,445.78 318,458 C411.17,480.87 514.6634,491.2797 590.0434,496.3197" fill="none" id="Produtor-to-UC10" style="stroke:#181818;stroke-width:1;"/><polygon fill="#181818" points="596.03,496.72,587.3169,492.1285,591.0411,496.3864,586.7832,500.1107,596.03,496.72" style="stroke:#181818;stroke-width:1;"/></g><!--link Varejista to UC01--><g class="link" data-entity-1="Varejista" data-entity-2="UC01" data-source-line="40" data-uid="lnk30" id="link_Varejista_UC01"><path d="M141.76,753.65 C181.84,744.16 254.84,727.71 318,718 C416.79,702.8 525.4879,692.8937 600.4479,687.0837" fill="none" id="Varejista-to-UC01" style="stroke:#181818;stroke-width:1;"/><polygon fill="#181818" points="606.43,686.62,597.1478,683.3274,601.445,687.0064,597.766,691.3035,606.43,686.62" style="stroke:#181818;stroke-width:1;"/></g><!--link Varejista to UC02--><g class="link" data-entity-1="Varejista" data-entity-2="UC02" data-source-line="41" data-uid="lnk31" id="link_Varejista_UC02"><path d="M124.92,722.94 C150.67,656.18 213.9,519.28 318,458 C404.33,407.18 515.9425,403.3229 594.9725,408.4329" fill="none" id="Varejista-to-UC02" style="stroke:#181818;stroke-width:1;"/><polygon fill="#181818" points="600.96,408.82,592.2369,404.2476,595.9704,408.4974,591.7207,412.2309,600.96,408.82" style="stroke:#181818;stroke-width:1;"/></g><!--link Varejista to UC04--><g class="link" data-entity-1="Varejista" data-entity-2="UC04" data-source-line="42" data-uid="lnk32" id="link_Varejista_UC04"><path d="M141.63,761 C233.56,761 505.47,761 625.17,761" fill="none" id="Varejista-to-UC04" style="stroke:#181818;stroke-width:1;"/><polygon fill="#181818" points="631.17,761,622.17,757,626.17,761,622.17,765,631.17,761" style="stroke:#181818;stroke-width:1;"/></g><!--link Varejista to UC05--><g class="link" data-entity-1="Varejista" data-entity-2="UC05" data-source-line="43" data-uid="lnk33" id="link_Varejista_UC05"><path d="M139.66,799.27 C163.92,828.95 201.78,868.11 245,887 C367.09,940.38 520.399,935.8391 610.609,926.9391" fill="none" id="Varejista-to-UC05" style="stroke:#181818;stroke-width:1;"/><polygon fill="#181818" points="616.58,926.35,607.2308,923.253,611.6042,926.8409,608.0162,931.2143,616.58,926.35" style="stroke:#181818;stroke-width:1;"/></g><!--link Varejista to UC08--><g class="link" data-entity-1="Varejista" data-entity-2="UC08" data-source-line="44" data-uid="lnk34" id="link_Varejista_UC08"><path d="M141.71,797.77 C166.32,824.61 203.66,858.85 245,874 C272.13,883.94 281.14,875.34 310,874 C419.82,868.91 541.0996,856.218 616.1196,847.558" fill="none" id="Varejista-to-UC08" style="stroke:#181818;stroke-width:1;"/><polygon fill="#181818" points="622.08,846.87,612.6807,843.9285,617.113,847.4434,613.5981,851.8757,622.08,846.87" style="stroke:#181818;stroke-width:1;"/></g><!--link Varejista to UC09--><g class="link" data-entity-1="Varejista" data-entity-2="UC09" data-source-line="45" data-uid="lnk35" id="link_Varejista_UC09"><path d="M125.5,799.09 C151.88,864.82 215.66,998.34 318,1059 C407.22,1111.88 524.187,1114.1208 603.147,1108.1708" fill="none" id="Varejista-to-UC09" style="stroke:#181818;stroke-width:1;"/><polygon fill="#181818" points="609.13,1107.72,599.8549,1104.4076,604.1441,1108.0957,600.456,1112.385,609.13,1107.72" style="stroke:#181818;stroke-width:1;"/></g><!--link Varejista to UC10--><g class="link" data-entity-1="Varejista" data-entity-2="UC10" data-source-line="46" data-uid="lnk36" id="link_Varejista_UC10"><path d="M138.77,722.75 C174.31,676.07 241.09,598.6 318,560 C405.12,516.27 511.0846,503.7855 588.7246,500.7355" fill="none" id="Varejista-to-UC10" style="stroke:#181818;stroke-width:1;"/><polygon fill="#181818" points="594.72,500.5,585.5699,496.8564,589.7239,500.6963,585.884,504.8502,594.72,500.5" style="stroke:#181818;stroke-width:1;"/></g><!--link Admin to UC12--><g class="link" data-entity-1="Admin" data-entity-2="UC12" data-source-line="48" data-uid="lnk37" id="link_Admin_UC12"><path d="M160.07,1266.18 C256.61,1268.53 467.9118,1273.674 591.1818,1276.674" fill="none" id="Admin-to-UC12" style="stroke:#181818;stroke-width:1;"/><polygon fill="#181818" points="597.18,1276.82,588.28,1272.6022,592.1815,1276.6984,588.0853,1280.5998,597.18,1276.82" style="stroke:#181818;stroke-width:1;"/></g><!--link Gateway to UC09--><g class="link" data-entity-1="Gateway" data-entity-2="UC09" data-source-line="50" data-uid="lnk38" id="link_Gateway_UC09"><path d="M194.57,1098 C301.96,1098 482.21,1098 592.28,1098" fill="none" id="Gateway-to-UC09" style="stroke:#181818;stroke-width:1;"/><polygon fill="#181818" points="598.28,1098,589.28,1094,593.28,1098,589.28,1102,598.28,1098" style="stroke:#181818;stroke-width:1;"/></g><!--link Mercado to UCA2--><g class="link" data-entity-1="Mercado" data-entity-2="UCA2" data-source-line="51" data-uid="lnk39" id="link_Mercado_UCA2"><path d="M215.05,1373.66 C331.39,1371.03 511.0315,1366.9758 611.3015,1364.7058" fill="none" id="Mercado-to-UCA2" style="stroke:#181818;stroke-width:1;"/><polygon fill="#181818" points="617.3,1364.57,608.2118,1360.7747,612.3013,1364.6832,608.3928,1368.7727,617.3,1364.57" style="stroke:#181818;stroke-width:1;"/></g><!--link UC08 to UC09--><g class="link" data-entity-1="UC08" data-entity-2="UC09" data-source-line="53" data-uid="lnk40" id="link_UC08_UC09"><path d="M621.2,831.49 C524.82,822.31 353.83,812.83 313,855.5 C250.45,920.86 256.58,992.57 318,1059 C395.84,1143.18 537.7227,1130.5275 621.0327,1114.1475" fill="none" id="UC08-to-UC09" style="stroke:#181818;stroke-width:1;stroke-dasharray:7,7;"/><polygon fill="#181818" points="626.92,1112.99,617.3174,1110.8014,622.0139,1113.9546,618.8608,1118.6512,626.92,1112.99" style="stroke:#181818;stroke-width:1;"/><text fill="#000000" font-family="sans-serif" font-size="13" lengthAdjust="spacing" textLength="63.0068" x="246" y="868.5669">«include»</text></g><!--link UC06 to UCA3--><g class="link" data-entity-1="UC06" data-entity-2="UCA3" data-source-line="55" data-uid="lnk41" id="link_UC06_UCA3"><path d="M688,229.31 C688,213.63 688,199.37 688,183.53" fill="none" id="UC06-to-UCA3" style="stroke:#181818;stroke-width:1;stroke-dasharray:7,7;"/><polygon fill="#181818" points="688,177.53,684,186.53,688,182.53,692,186.53,688,177.53" style="stroke:#181818;stroke-width:1;"/><text fill="#000000" font-family="sans-serif" font-size="13" lengthAdjust="spacing" textLength="63.0068" x="645" y="208.0669">«include»</text></g><!--link UC07 to UCA2--><g class="link" data-entity-1="UC07" data-entity-2="UCA2" data-source-line="57" data-uid="lnk42" id="link_UC07_UCA2"><path d="M622.03,322.34 C537.71,306.7 393.61,295.54 318,379 C247.81,456.49 248.07,1242.27 318,1320 C395.53,1406.18 539.9952,1393.8689 623.1852,1378.0789" fill="none" id="UC07-to-UCA2" style="stroke:#181818;stroke-width:1;stroke-dasharray:7,7;"/><polygon fill="#181818" points="629.08,1376.96,619.492,1374.7085,624.1677,1377.8924,620.9838,1382.5681,629.08,1376.96" style="stroke:#181818;stroke-width:1;"/><text fill="#000000" font-family="sans-serif" font-size="13" lengthAdjust="spacing" textLength="63.0068" x="246" y="821.5669">«include»</text></g><!--link UC05A to UC05--><g class="link" data-entity-1="UC05A" data-entity-2="UC05" data-source-line="59" data-uid="lnk43" id="link_UC05A_UC05"><path d="M688,993.81 C688,978.4 688,964.46 688,948.76" fill="none" id="UC05A-to-UC05" style="stroke:#181818;stroke-width:1;stroke-dasharray:7,7;"/><polygon fill="#181818" points="688,942.76,684,951.76,688,947.76,692,951.76,688,942.76" style="stroke:#181818;stroke-width:1;"/><text fill="#000000" font-family="sans-serif" font-size="13" lengthAdjust="spacing" textLength="61.1851" x="646" y="972.8169">«extend»</text></g><!--link UC11 to UC09--><g class="link" data-entity-1="UC11" data-entity-2="UC09" data-source-line="60" data-uid="lnk44" id="link_UC11_UC09"><path d="M688,1170.27 C688,1154.33 688,1139.84 688,1124.75" fill="none" id="UC11-to-UC09" style="stroke:#181818;stroke-width:1;stroke-dasharray:7,7;"/><polygon fill="#181818" points="688,1118.75,684,1127.75,688,1123.75,692,1127.75,688,1118.75" style="stroke:#181818;stroke-width:1;"/><text fill="#000000" font-family="sans-serif" font-size="13" lengthAdjust="spacing" textLength="61.1851" x="646" y="1149.0669">«extend»</text></g><!--link UCA4 to UC10--><g class="link" data-entity-1="UCA4" data-entity-2="UC10" data-source-line="61" data-uid="lnk45" id="link_UCA4_UC10"><path d="M688,577.29 C688,561.76 688,547.77 688,532.15" fill="none" id="UCA4-to-UC10" style="stroke:#181818;stroke-width:1;stroke-dasharray:7,7;"/><polygon fill="#181818" points="688,526.15,684,535.15,688,531.15,692,535.15,688,526.15" style="stroke:#181818;stroke-width:1;"/><text fill="#000000" font-family="sans-serif" font-size="13" lengthAdjust="spacing" textLength="61.1851" x="646" y="556.3169">«extend»</text></g><!--SRC=[TLHBJjn04Dtx52NsHFFb4o4aPqOGfA2CCe7LR4fsZMcmkqbtUmY9SXZ2WWEWdC0NItNxC_OOTkxtNdswNhbJMbkm2hH8RYp4GbDaXPA1kHFo7ZLcS8_H7IQqj8yfWQDH9Ycr1EO6O_KWP09hJ4sRmSWgNGOQAwAx36KGU13s5lGZ9wbWeLMSCx87Q9f3BRf6JRV2MFHiSwhfCCw4P41p0sK2ZzJqELfwm4U82HQOO4RIAg-gY5gt9BqHnOjomZcdCkxZadJ4trvVVGT1SttkFqMBQwKpX0jfAHK9foTm5uTB9GLdBYi2mLShCl4BYvVYsHUva6kDn7tdDjUSVvaRozBYQKF2xC7l80383KLekD0COsIf3xmoUV6aHTdLrMmmR0l3t2KHqRREhdpKbf-J9Xa9rB1GsgwBrrIebNIpAaqmTTIuqurs4L-S2ruy9qEtM-sahVsKcuZ516SYPO_qIfufBIaYTekQa6axv5gO75EU5NUbQICCtwIgmyiJOnrqq0vQvWaFixepXx6LApaNilYRYQYv_64xv1jLLMOgkzTDsgEsXkSGaJ6kbSxsiEvuPv1r8hL1Ne9oYZinm-4xz_pCionUDNVguxvhbCPP-AyPqN3GjJaMbkFQmfKa-4Q9-nKQBuQZxXgfb5oONt1VgRtXLxEminoXvEvCBGVUm9Nqflj_esjwE7xdPdCkcDwuxcBSjllSL9oyxxotqFcgHTFXO1e6VuAWVYDWV_-q_0TsaL4F6VUGWnvok8lms8FcoTbMwq6ZFZJfGzC-TDI7ZdkGwyA_QlMPRQqVjYQeih82sCh0fOSF9GqVuUH4o2ZDOpezzTn1oONZDxZ3YXkzmKt3AkdKa_IJdvoOERVVdN8j9foKp73GOVu3]--></g></svg>